<svg xmlns="http://www.w3.org/2000/svg" viewBox="0 0 32 32">
  <rect width="32" height="32" rx="6" fill="#fac7d7"/>
  <circle cx="16" cy="16" r="10" fill="#d4944a"/>
  <circle cx="16" cy="16" r="9.5" fill="#e0a85c"/>
  <!-- cookie edge texture -->
  <circle cx="8" cy="14" r="1.2" fill="#d4944a"/>
  <circle cx="24" cy="14" r="1.2" fill="#d4944a"/>
  <circle cx="10" cy="21" r="1" fill="#d4944a"/>
  <circle cx="22" cy="21" r="1" fill="#d4944a"/>
  <circle cx="16" cy="25" r="1" fill="#d4944a"/>
  <circle cx="12" cy="7.5" r="0.8" fill="#d4944a"/>
  <circle cx="20" cy="7.5" r="0.8" fill="#d4944a"/>
  <!-- chocolate chips -->
  <ellipse cx="13" cy="12" rx="1.8" ry="1.5" transform="rotate(-15 13 12)" fill="#4a2c17"/>
  <ellipse cx="19" cy="14" rx="1.6" ry="1.3" transform="rotate(20 19 14)" fill="#4a2c17"/>
  <ellipse cx="14" cy="18" rx="1.5" ry="1.3" transform="rotate(10 14 18)" fill="#3d2213"/>
  <ellipse cx="20" cy="19" rx="1.4" ry="1.2" transform="rotate(-25 20 19)" fill="#4a2c17"/>
  <ellipse cx="16" cy="22" rx="1.3" ry="1.1" transform="rotate(5 16 22)" fill="#3d2213"/>
  <ellipse cx="11" cy="15" rx="1.2" ry="1" transform="rotate(-10 11 15)" fill="#3d2213"/>
  <!-- chip highlights -->
  <ellipse cx="12.5" cy="11.5" rx="0.6" ry="0.4" transform="rotate(-15 12.5 11.5)" fill="#5c3a22" opacity="0.5"/>
  <ellipse cx="18.5" cy="13.5" rx="0.5" ry="0.3" transform="rotate(20 18.5 13.5)" fill="#5c3a22" opacity="0.5"/>
</svg>
